<svg xmlns="http://www.w3.org/2000/svg" xmlns:xlink="http://www.w3.org/1999/xlink" width="576" zoomAndPan="magnify" viewBox="0 0 432 72" height="96" preserveAspectRatio="xMidYMid meet" version="1.0"><defs><g/><clipPath id="279c79e26e"><path d="M 6.75 0 L 425.25 0 C 428.976562 0 432 3.023438 432 6.75 L 432 65.25 C 432 68.976562 428.976562 72 425.25 72 L 6.75 72 C 3.023438 72 0 68.976562 0 65.25 L 0 6.75 C 0 3.023438 3.023438 0 6.75 0 " clip-rule="nonzero"/></clipPath><clipPath id="17929f1f43"><path d="M 11.648438 11.648438 L 60.398438 11.648438 L 60.398438 60.398438 L 11.648438 60.398438 Z M 11.648438 11.648438 " clip-rule="nonzero"/></clipPath></defs><g clip-path="url(#279c79e26e)"><path fill="#0072b1" d="M 0 0 L 432 0 L 432 71.886719 L 0 71.886719 Z M 0 0 " fill-opacity="1" fill-rule="nonzero"/></g><g fill="#ffffff" fill-opacity="1"><g transform="translate(98.02734, 47.25)"><g><path d="M 17.734375 -13.359375 L 17.734375 -22.484375 L 20.359375 -22.484375 L 20.359375 0 L 17.734375 0 L 17.734375 -11.125 L 6.046875 -11.125 L 6.046875 0 L 3.40625 0 L 3.40625 -22.484375 L 6.046875 -22.484375 L 6.046875 -13.359375 Z M 17.734375 -13.359375 "/></g></g></g><g fill="#ffffff" fill-opacity="1"><g transform="translate(121.797301, 47.25)"><g><path d="M 7 0.328125 C 5.320312 0.328125 4.015625 -0.109375 3.078125 -0.984375 C 2.140625 -1.859375 1.671875 -3.101562 1.671875 -4.71875 C 1.671875 -5.726562 1.878906 -6.578125 2.296875 -7.265625 C 2.710938 -7.960938 3.351562 -8.523438 4.21875 -8.953125 C 5.09375 -9.390625 6.234375 -9.726562 7.640625 -9.96875 C 8.867188 -10.175781 9.800781 -10.40625 10.4375 -10.65625 C 11.082031 -10.914062 11.515625 -11.203125 11.734375 -11.515625 C 11.960938 -11.835938 12.078125 -12.238281 12.078125 -12.71875 C 12.078125 -13.488281 11.8125 -14.078125 11.28125 -14.484375 C 10.75 -14.898438 9.898438 -15.109375 8.734375 -15.109375 C 7.640625 -15.109375 6.695312 -14.894531 5.90625 -14.46875 C 5.125 -14.039062 4.40625 -13.40625 3.75 -12.5625 L 3.453125 -12.5625 L 2.21875 -14.296875 C 2.9375 -15.210938 3.847656 -15.9375 4.953125 -16.46875 C 6.054688 -17.007812 7.316406 -17.28125 8.734375 -17.28125 C 10.734375 -17.28125 12.207031 -16.84375 13.15625 -15.96875 C 14.101562 -15.09375 14.578125 -13.878906 14.578125 -12.328125 L 14.578125 -3.34375 C 14.578125 -2.394531 14.976562 -1.921875 15.78125 -1.921875 C 16.050781 -1.921875 16.304688 -1.96875 16.546875 -2.0625 L 16.765625 -2 L 17.0625 -0.265625 C 16.875 -0.140625 16.628906 -0.046875 16.328125 0.015625 C 16.023438 0.0859375 15.710938 0.125 15.390625 0.125 C 14.460938 0.125 13.757812 -0.078125 13.28125 -0.484375 C 12.800781 -0.898438 12.492188 -1.507812 12.359375 -2.3125 L 12.046875 -2.34375 C 11.566406 -1.445312 10.914062 -0.773438 10.09375 -0.328125 C 9.269531 0.109375 8.238281 0.328125 7 0.328125 Z M 7.546875 -1.671875 C 8.492188 -1.671875 9.3125 -1.890625 10 -2.328125 C 10.695312 -2.765625 11.226562 -3.378906 11.59375 -4.171875 C 11.96875 -4.960938 12.15625 -5.875 12.15625 -6.90625 L 12.15625 -9.0625 L 11.859375 -9.125 C 11.484375 -8.851562 11.019531 -8.628906 10.46875 -8.453125 C 9.925781 -8.273438 9.171875 -8.113281 8.203125 -7.96875 C 7.210938 -7.832031 6.425781 -7.625 5.84375 -7.34375 C 5.269531 -7.070312 4.859375 -6.722656 4.609375 -6.296875 C 4.367188 -5.867188 4.25 -5.34375 4.25 -4.71875 C 4.25 -3.726562 4.539062 -2.972656 5.125 -2.453125 C 5.707031 -1.929688 6.515625 -1.671875 7.546875 -1.671875 Z M 7.546875 -1.671875 "/></g></g></g><g fill="#ffffff" fill-opacity="1"><g transform="translate(139.340338, 47.25)"><g><path d="M 3.78125 0 L 3.78125 -14.921875 L 0.828125 -14.921875 L 0.828125 -16.984375 L 3.78125 -16.984375 C 3.59375 -17.722656 3.5 -18.425781 3.5 -19.09375 C 3.5 -20.1875 3.734375 -21.109375 4.203125 -21.859375 C 4.671875 -22.617188 5.316406 -23.179688 6.140625 -23.546875 C 6.972656 -23.921875 7.9375 -24.109375 9.03125 -24.109375 C 10.71875 -24.109375 12.015625 -23.742188 12.921875 -23.015625 L 11.953125 -21.234375 L 11.625 -21.171875 C 10.957031 -21.710938 10.09375 -21.984375 9.03125 -21.984375 C 8.03125 -21.984375 7.273438 -21.722656 6.765625 -21.203125 C 6.265625 -20.691406 6.015625 -19.96875 6.015625 -19.03125 C 6.015625 -18.445312 6.109375 -17.765625 6.296875 -16.984375 L 11.6875 -16.984375 L 11.6875 -14.921875 L 6.296875 -14.921875 L 6.296875 0 Z M 3.78125 0 "/></g></g></g><g fill="#ffffff" fill-opacity="1"><g transform="translate(151.425195, 47.25)"><g><path d="M 4.21875 -20.234375 C 3.6875 -20.234375 3.253906 -20.398438 2.921875 -20.734375 C 2.585938 -21.066406 2.421875 -21.492188 2.421875 -22.015625 C 2.421875 -22.523438 2.585938 -22.945312 2.921875 -23.28125 C 3.253906 -23.613281 3.6875 -23.78125 4.21875 -23.78125 C 4.75 -23.78125 5.179688 -23.613281 5.515625 -23.28125 C 5.847656 -22.945312 6.015625 -22.523438 6.015625 -22.015625 C 6.015625 -21.492188 5.847656 -21.066406 5.515625 -20.734375 C 5.179688 -20.398438 4.75 -20.234375 4.21875 -20.234375 Z M 2.953125 0 L 2.953125 -16.96875 L 5.453125 -16.96875 L 5.453125 0 Z M 2.953125 0 "/></g></g></g><g fill="#ffffff" fill-opacity="1"><g transform="translate(159.835401, 47.25)"><g><path d="M 13.5625 0 L 1.15625 0 L 1.15625 -2.1875 L 10.46875 -14.59375 L 10.375 -14.921875 L 1.53125 -14.921875 L 1.53125 -16.984375 L 13.421875 -16.984375 L 13.421875 -14.796875 L 4.109375 -2.390625 L 4.21875 -2.0625 L 13.5625 -2.0625 Z M 13.5625 0 "/></g></g></g><g fill="#ffffff" fill-opacity="1"><g transform="translate(174.610913, 47.25)"><g/></g></g><g fill="#ffffff" fill-opacity="1"><g transform="translate(182.329232, 47.25)"><g><path d="M 17.734375 -13.359375 L 17.734375 -22.484375 L 20.359375 -22.484375 L 20.359375 0 L 17.734375 0 L 17.734375 -11.125 L 6.046875 -11.125 L 6.046875 0 L 3.40625 0 L 3.40625 -22.484375 L 6.046875 -22.484375 L 6.046875 -13.359375 Z M 17.734375 -13.359375 "/></g></g></g><g fill="#ffffff" fill-opacity="1"><g transform="translate(206.099193, 47.25)"><g><path d="M 8.375 0.328125 C 6.457031 0.328125 5.03125 -0.175781 4.09375 -1.1875 C 3.15625 -2.207031 2.6875 -3.695312 2.6875 -5.65625 L 2.6875 -16.96875 L 5.203125 -16.96875 L 5.203125 -5.71875 C 5.203125 -3.144531 6.410156 -1.859375 8.828125 -1.859375 C 10.367188 -1.859375 11.582031 -2.359375 12.46875 -3.359375 C 13.363281 -4.367188 13.8125 -6.003906 13.8125 -8.265625 L 13.8125 -16.96875 L 16.3125 -16.96875 L 16.3125 0 L 13.953125 0 L 13.953125 -2.65625 L 13.625 -2.734375 C 13.039062 -1.703125 12.34375 -0.929688 11.53125 -0.421875 C 10.71875 0.078125 9.664062 0.328125 8.375 0.328125 Z M 8.375 0.328125 "/></g></g></g><g fill="#ffffff" fill-opacity="1"><g transform="translate(225.364245, 47.25)"><g><path d="M 7.734375 0.328125 C 6.671875 0.328125 5.6875 0.1875 4.78125 -0.09375 C 3.875 -0.375 3.101562 -0.757812 2.46875 -1.25 C 1.84375 -1.75 1.40625 -2.304688 1.15625 -2.921875 L 2.625 -4.453125 L 2.953125 -4.453125 C 3.503906 -3.617188 4.171875 -2.988281 4.953125 -2.5625 C 5.734375 -2.132812 6.660156 -1.921875 7.734375 -1.921875 C 8.984375 -1.921875 9.929688 -2.164062 10.578125 -2.65625 C 11.234375 -3.144531 11.5625 -3.820312 11.5625 -4.6875 C 11.5625 -5.351562 11.363281 -5.90625 10.96875 -6.34375 C 10.570312 -6.78125 9.9375 -7.109375 9.0625 -7.328125 L 6.203125 -8.03125 C 4.671875 -8.394531 3.550781 -8.976562 2.84375 -9.78125 C 2.144531 -10.582031 1.796875 -11.570312 1.796875 -12.75 C 1.796875 -13.675781 2.03125 -14.476562 2.5 -15.15625 C 2.976562 -15.84375 3.660156 -16.367188 4.546875 -16.734375 C 5.429688 -17.097656 6.484375 -17.28125 7.703125 -17.28125 C 9.265625 -17.28125 10.492188 -17.0625 11.390625 -16.625 C 12.285156 -16.195312 12.984375 -15.59375 13.484375 -14.8125 L 12.078125 -13.421875 L 11.765625 -13.421875 C 11.222656 -14.046875 10.628906 -14.5 9.984375 -14.78125 C 9.347656 -15.0625 8.585938 -15.203125 7.703125 -15.203125 C 6.585938 -15.203125 5.734375 -15 5.140625 -14.59375 C 4.546875 -14.195312 4.25 -13.617188 4.25 -12.859375 C 4.25 -12.171875 4.457031 -11.613281 4.875 -11.1875 C 5.289062 -10.769531 6.023438 -10.4375 7.078125 -10.1875 L 9.890625 -9.5 C 11.367188 -9.15625 12.4375 -8.578125 13.09375 -7.765625 C 13.75 -6.953125 14.078125 -5.9375 14.078125 -4.71875 C 14.078125 -3.726562 13.835938 -2.851562 13.359375 -2.09375 C 12.890625 -1.332031 12.175781 -0.738281 11.21875 -0.3125 C 10.269531 0.113281 9.109375 0.328125 7.734375 0.328125 Z M 7.734375 0.328125 "/></g></g></g><g fill="#ffffff" fill-opacity="1"><g transform="translate(241.046885, 47.25)"><g><path d="M 16.171875 -7.90625 L 4.5 -7.90625 C 4.570312 -5.84375 5.066406 -4.328125 5.984375 -3.359375 C 6.910156 -2.398438 8.171875 -1.921875 9.765625 -1.921875 C 10.972656 -1.921875 11.945312 -2.132812 12.6875 -2.5625 C 13.425781 -3 14.003906 -3.675781 14.421875 -4.59375 L 14.75 -4.59375 L 16.375 -3.625 C 15.882812 -2.394531 15.097656 -1.425781 14.015625 -0.71875 C 12.929688 -0.0195312 11.515625 0.328125 9.765625 0.328125 C 8.128906 0.328125 6.71875 0.00390625 5.53125 -0.640625 C 4.351562 -1.285156 3.445312 -2.265625 2.8125 -3.578125 C 2.175781 -4.890625 1.859375 -6.519531 1.859375 -8.46875 C 1.859375 -10.394531 2.191406 -12.019531 2.859375 -13.34375 C 3.535156 -14.664062 4.457031 -15.648438 5.625 -16.296875 C 6.789062 -16.953125 8.117188 -17.28125 9.609375 -17.28125 C 11.785156 -17.28125 13.484375 -16.664062 14.703125 -15.4375 C 15.921875 -14.21875 16.535156 -12.40625 16.546875 -10 C 16.546875 -9.050781 16.523438 -8.414062 16.484375 -8.09375 Z M 14.078125 -10 C 14.035156 -11.800781 13.632812 -13.113281 12.875 -13.9375 C 12.113281 -14.757812 11.023438 -15.171875 9.609375 -15.171875 C 8.128906 -15.171875 6.960938 -14.753906 6.109375 -13.921875 C 5.265625 -13.097656 4.75 -11.789062 4.5625 -10 Z M 14.078125 -10 "/></g></g></g><g fill="#ffffff" fill-opacity="1"><g transform="translate(259.128045, 47.25)"><g><path d="M 3.40625 7.203125 C 2.820312 7.203125 2.28125 7.148438 1.78125 7.046875 C 1.289062 6.953125 0.863281 6.816406 0.5 6.640625 L 0.96875 4.65625 L 1.25 4.5625 C 1.488281 4.6875 1.789062 4.789062 2.15625 4.875 C 2.53125 4.96875 2.914062 5.015625 3.3125 5.015625 C 4 5.015625 4.566406 4.921875 5.015625 4.734375 C 5.460938 4.546875 5.847656 4.238281 6.171875 3.8125 C 6.492188 3.394531 6.796875 2.8125 7.078125 2.0625 L 7.671875 0.40625 L 0.859375 -16.96875 L 3.5625 -16.96875 L 8.90625 -3.125 L 9.203125 -3.125 L 14.359375 -16.96875 L 16.9375 -16.96875 L 9.359375 2.65625 C 8.921875 3.75 8.4375 4.625 7.90625 5.28125 C 7.375 5.945312 6.742188 6.429688 6.015625 6.734375 C 5.285156 7.046875 4.414062 7.203125 3.40625 7.203125 Z M 3.40625 7.203125 "/></g></g></g><g fill="#ffffff" fill-opacity="1"><g transform="translate(277.009335, 47.25)"><g><path d="M 2.953125 0 L 2.953125 -16.96875 L 5.34375 -16.96875 L 5.34375 -14.296875 L 5.65625 -14.234375 C 6.21875 -15.222656 6.9375 -15.976562 7.8125 -16.5 C 8.695312 -17.019531 9.769531 -17.28125 11.03125 -17.28125 C 13.070312 -17.28125 14.550781 -16.757812 15.46875 -15.71875 C 16.382812 -14.6875 16.84375 -13.085938 16.84375 -10.921875 L 16.84375 0 L 14.328125 0 L 14.328125 -10.859375 C 14.328125 -11.878906 14.195312 -12.703125 13.9375 -13.328125 C 13.675781 -13.953125 13.269531 -14.40625 12.71875 -14.6875 C 12.175781 -14.96875 11.457031 -15.109375 10.5625 -15.109375 C 9.039062 -15.109375 7.804688 -14.601562 6.859375 -13.59375 C 5.921875 -12.582031 5.453125 -10.953125 5.453125 -8.703125 L 5.453125 0 Z M 2.953125 0 "/></g></g></g><g fill="#ffffff" fill-opacity="1"><g transform="translate(296.53577, 47.25)"><g><path d="M 9.734375 0.328125 C 8.140625 0.328125 6.75 -0.0078125 5.5625 -0.6875 C 4.375 -1.363281 3.457031 -2.359375 2.8125 -3.671875 C 2.175781 -4.992188 1.859375 -6.59375 1.859375 -8.46875 C 1.859375 -10.351562 2.175781 -11.957031 2.8125 -13.28125 C 3.457031 -14.601562 4.375 -15.597656 5.5625 -16.265625 C 6.75 -16.941406 8.140625 -17.28125 9.734375 -17.28125 C 11.335938 -17.28125 12.726562 -16.941406 13.90625 -16.265625 C 15.09375 -15.597656 16.003906 -14.601562 16.640625 -13.28125 C 17.285156 -11.957031 17.609375 -10.351562 17.609375 -8.46875 C 17.609375 -6.59375 17.285156 -4.992188 16.640625 -3.671875 C 16.003906 -2.359375 15.09375 -1.363281 13.90625 -0.6875 C 12.726562 -0.0078125 11.335938 0.328125 9.734375 0.328125 Z M 9.734375 -1.921875 C 11.429688 -1.921875 12.726562 -2.453125 13.625 -3.515625 C 14.519531 -4.585938 14.96875 -6.238281 14.96875 -8.46875 C 14.96875 -10.71875 14.519531 -12.375 13.625 -13.4375 C 12.726562 -14.507812 11.429688 -15.046875 9.734375 -15.046875 C 8.046875 -15.046875 6.75 -14.507812 5.84375 -13.4375 C 4.9375 -12.363281 4.484375 -10.707031 4.484375 -8.46875 C 4.484375 -6.238281 4.9375 -4.585938 5.84375 -3.515625 C 6.75 -2.453125 8.046875 -1.921875 9.734375 -1.921875 Z M 9.734375 -1.921875 "/></g></g></g><g fill="#ffffff" fill-opacity="1"><g transform="translate(316.000705, 47.25)"><g><path d="M 10.734375 0 L 7.296875 0 L 0.828125 -16.96875 L 3.53125 -16.96875 L 8.875 -2.859375 L 9.234375 -2.859375 L 14.515625 -16.96875 L 17.171875 -16.96875 Z M 10.734375 0 "/></g></g></g><g clip-path="url(#17929f1f43)"><path fill="#fffbf0" d="M 52.273438 60.398438 L 19.773438 60.398438 C 19.242188 60.398438 18.714844 60.347656 18.191406 60.242188 C 17.667969 60.136719 17.160156 59.984375 16.667969 59.78125 C 16.175781 59.574219 15.707031 59.324219 15.261719 59.027344 C 14.820312 58.730469 14.410156 58.394531 14.03125 58.019531 C 13.65625 57.640625 13.320312 57.230469 13.023438 56.789062 C 12.726562 56.34375 12.476562 55.875 12.269531 55.382812 C 12.066406 54.890625 11.914062 54.382812 11.808594 53.859375 C 11.703125 53.335938 11.652344 52.808594 11.648438 52.273438 L 11.648438 19.773438 C 11.652344 19.242188 11.703125 18.714844 11.808594 18.191406 C 11.914062 17.667969 12.066406 17.160156 12.269531 16.667969 C 12.476562 16.175781 12.726562 15.707031 13.023438 15.261719 C 13.320312 14.820312 13.65625 14.410156 14.03125 14.03125 C 14.410156 13.65625 14.820312 13.320312 15.261719 13.023438 C 15.707031 12.726562 16.175781 12.476562 16.667969 12.269531 C 17.160156 12.066406 17.667969 11.914062 18.191406 11.808594 C 18.714844 11.703125 19.242188 11.652344 19.773438 11.648438 L 52.273438 11.648438 C 52.808594 11.652344 53.335938 11.703125 53.859375 11.808594 C 54.382812 11.914062 54.890625 12.066406 55.382812 12.269531 C 55.875 12.476562 56.34375 12.726562 56.789062 13.023438 C 57.230469 13.320312 57.640625 13.65625 58.019531 14.03125 C 58.394531 14.410156 58.730469 14.820312 59.027344 15.261719 C 59.324219 15.707031 59.574219 16.175781 59.78125 16.667969 C 59.984375 17.160156 60.136719 17.667969 60.242188 18.191406 C 60.347656 18.714844 60.398438 19.242188 60.398438 19.773438 L 60.398438 52.273438 C 60.398438 52.808594 60.347656 53.335938 60.242188 53.859375 C 60.136719 54.382812 59.984375 54.890625 59.78125 55.382812 C 59.574219 55.875 59.324219 56.34375 59.027344 56.789062 C 58.730469 57.230469 58.394531 57.640625 58.019531 58.019531 C 57.640625 58.394531 57.230469 58.730469 56.789062 59.027344 C 56.34375 59.324219 55.875 59.574219 55.382812 59.78125 C 54.890625 59.984375 54.382812 60.136719 53.859375 60.242188 C 53.335938 60.347656 52.808594 60.398438 52.273438 60.398438 Z M 19.773438 17.066406 C 19.417969 17.066406 19.070312 17.136719 18.738281 17.273438 C 18.40625 17.410156 18.113281 17.605469 17.859375 17.859375 C 17.605469 18.113281 17.410156 18.40625 17.273438 18.738281 C 17.136719 19.070312 17.066406 19.417969 17.066406 19.773438 L 17.066406 52.273438 C 17.066406 52.632812 17.136719 52.980469 17.273438 53.3125 C 17.410156 53.644531 17.605469 53.9375 17.859375 54.191406 C 18.113281 54.445312 18.40625 54.640625 18.738281 54.777344 C 19.070312 54.914062 19.417969 54.984375 19.773438 54.984375 L 52.273438 54.984375 C 52.632812 54.984375 52.980469 54.914062 53.3125 54.777344 C 53.644531 54.640625 53.9375 54.445312 54.191406 54.191406 C 54.445312 53.9375 54.640625 53.644531 54.777344 53.3125 C 54.914062 52.980469 54.984375 52.632812 54.984375 52.273438 L 54.984375 19.773438 C 54.984375 19.417969 54.914062 19.070312 54.777344 18.738281 C 54.640625 18.40625 54.445312 18.113281 54.191406 17.859375 C 53.9375 17.605469 53.644531 17.410156 53.3125 17.273438 C 52.980469 17.136719 52.632812 17.066406 52.273438 17.066406 Z M 19.773438 17.066406 " fill-opacity="1" fill-rule="nonzero"/></g><path fill="#fffbf0" d="M 25.191406 49.566406 C 24.832031 49.566406 24.488281 49.5 24.15625 49.359375 C 23.824219 49.222656 23.53125 49.027344 23.277344 48.773438 C 23.023438 48.519531 22.828125 48.226562 22.691406 47.894531 C 22.550781 47.5625 22.484375 47.21875 22.484375 46.859375 L 22.484375 33.316406 C 22.484375 32.957031 22.550781 32.613281 22.691406 32.28125 C 22.828125 31.949219 23.023438 31.65625 23.277344 31.402344 C 23.53125 31.148438 23.824219 30.953125 24.15625 30.816406 C 24.488281 30.675781 24.832031 30.609375 25.191406 30.609375 C 25.550781 30.609375 25.898438 30.675781 26.226562 30.816406 C 26.558594 30.953125 26.851562 31.148438 27.105469 31.402344 C 27.359375 31.65625 27.558594 31.949219 27.695312 32.28125 C 27.832031 32.613281 27.898438 32.957031 27.898438 33.316406 L 27.898438 46.859375 C 27.898438 47.21875 27.832031 47.5625 27.695312 47.894531 C 27.558594 48.226562 27.359375 48.519531 27.105469 48.773438 C 26.851562 49.027344 26.558594 49.222656 26.226562 49.359375 C 25.898438 49.5 25.550781 49.566406 25.191406 49.566406 Z M 25.191406 49.566406 " fill-opacity="1" fill-rule="nonzero"/><path fill="#fffbf0" d="M 25.191406 27.925781 C 24.832031 27.929688 24.484375 27.859375 24.152344 27.722656 C 23.820312 27.585938 23.527344 27.390625 23.273438 27.136719 C 23.015625 26.886719 22.820312 26.59375 22.679688 26.261719 C 22.542969 25.929688 22.472656 25.582031 22.46875 25.222656 C 22.46875 24.863281 22.535156 24.519531 22.671875 24.183594 C 22.808594 23.851562 23.003906 23.558594 23.257812 23.300781 C 23.507812 23.046875 23.800781 22.847656 24.132812 22.710938 C 24.464844 22.570312 24.808594 22.5 25.167969 22.496094 C 25.527344 22.496094 25.875 22.5625 26.207031 22.699219 C 26.542969 22.832031 26.835938 23.027344 27.09375 23.28125 C 27.347656 23.53125 27.546875 23.824219 27.6875 24.15625 C 27.828125 24.488281 27.898438 24.832031 27.898438 25.191406 L 27.898438 25.21875 C 27.898438 25.578125 27.832031 25.921875 27.695312 26.253906 C 27.558594 26.585938 27.359375 26.878906 27.105469 27.132812 C 26.851562 27.386719 26.558594 27.582031 26.226562 27.722656 C 25.898438 27.859375 25.550781 27.925781 25.191406 27.925781 Z M 25.191406 27.925781 " fill-opacity="1" fill-rule="nonzero"/><path fill="#fffbf0" d="M 36.023438 49.566406 C 35.667969 49.566406 35.320312 49.5 34.988281 49.359375 C 34.65625 49.222656 34.363281 49.027344 34.109375 48.773438 C 33.855469 48.519531 33.660156 48.226562 33.523438 47.894531 C 33.386719 47.5625 33.316406 47.21875 33.316406 46.859375 L 33.316406 33.316406 C 33.316406 32.957031 33.386719 32.613281 33.523438 32.28125 C 33.660156 31.949219 33.855469 31.65625 34.109375 31.402344 C 34.363281 31.148438 34.65625 30.953125 34.988281 30.816406 C 35.320312 30.675781 35.667969 30.609375 36.023438 30.609375 C 36.382812 30.609375 36.730469 30.675781 37.0625 30.816406 C 37.394531 30.953125 37.6875 31.148438 37.941406 31.402344 C 38.195312 31.65625 38.390625 31.949219 38.527344 32.28125 C 38.664062 32.613281 38.734375 32.957031 38.734375 33.316406 L 38.734375 46.859375 C 38.734375 47.21875 38.664062 47.5625 38.527344 47.894531 C 38.390625 48.226562 38.195312 48.519531 37.941406 48.773438 C 37.6875 49.027344 37.394531 49.222656 37.0625 49.359375 C 36.730469 49.5 36.382812 49.566406 36.023438 49.566406 Z M 36.023438 49.566406 " fill-opacity="1" fill-rule="nonzero"/><path fill="#fffbf0" d="M 46.859375 49.566406 C 46.5 49.566406 46.152344 49.5 45.820312 49.359375 C 45.492188 49.222656 45.199219 49.027344 44.945312 48.773438 C 44.691406 48.519531 44.492188 48.226562 44.355469 47.894531 C 44.21875 47.5625 44.148438 47.21875 44.148438 46.859375 L 44.148438 38.734375 C 44.148438 38.375 44.082031 38.027344 43.945312 37.695312 C 43.808594 37.367188 43.609375 37.074219 43.355469 36.820312 C 43.101562 36.566406 42.808594 36.367188 42.476562 36.230469 C 42.148438 36.09375 41.800781 36.023438 41.441406 36.023438 C 41.082031 36.023438 40.738281 36.09375 40.40625 36.230469 C 40.074219 36.367188 39.78125 36.566406 39.527344 36.820312 C 39.273438 37.074219 39.078125 37.367188 38.941406 37.695312 C 38.800781 38.027344 38.734375 38.375 38.734375 38.734375 C 38.734375 39.09375 38.664062 39.4375 38.527344 39.769531 C 38.390625 40.101562 38.195312 40.394531 37.941406 40.648438 C 37.6875 40.902344 37.394531 41.097656 37.0625 41.234375 C 36.730469 41.375 36.382812 41.441406 36.023438 41.441406 C 35.667969 41.441406 35.320312 41.375 34.988281 41.234375 C 34.65625 41.097656 34.363281 40.902344 34.109375 40.648438 C 33.855469 40.394531 33.660156 40.101562 33.523438 39.769531 C 33.386719 39.4375 33.316406 39.09375 33.316406 38.734375 C 33.316406 38.199219 33.367188 37.671875 33.472656 37.148438 C 33.578125 36.625 33.730469 36.117188 33.933594 35.625 C 34.140625 35.132812 34.390625 34.664062 34.6875 34.21875 C 34.984375 33.777344 35.320312 33.367188 35.695312 32.988281 C 36.074219 32.609375 36.484375 32.273438 36.929688 31.976562 C 37.371094 31.679688 37.839844 31.429688 38.332031 31.226562 C 38.824219 31.023438 39.332031 30.867188 39.855469 30.765625 C 40.378906 30.660156 40.910156 30.609375 41.441406 30.609375 C 41.976562 30.609375 42.503906 30.660156 43.027344 30.765625 C 43.550781 30.867188 44.058594 31.023438 44.550781 31.226562 C 45.042969 31.429688 45.511719 31.679688 45.957031 31.976562 C 46.398438 32.273438 46.808594 32.609375 47.1875 32.988281 C 47.566406 33.367188 47.902344 33.777344 48.199219 34.21875 C 48.492188 34.664062 48.746094 35.132812 48.949219 35.625 C 49.152344 36.117188 49.308594 36.625 49.410156 37.148438 C 49.515625 37.671875 49.566406 38.199219 49.566406 38.734375 L 49.566406 46.859375 C 49.566406 47.21875 49.5 47.5625 49.359375 47.894531 C 49.222656 48.226562 49.027344 48.519531 48.773438 48.773438 C 48.519531 49.027344 48.226562 49.222656 47.894531 49.359375 C 47.5625 49.5 47.21875 49.566406 46.859375 49.566406 Z M 46.859375 49.566406 " fill-opacity="1" fill-rule="nonzero"/></svg>