<svg xmlns="http://www.w3.org/2000/svg" xmlns:xlink="http://www.w3.org/1999/xlink" width="576" zoomAndPan="magnify" viewBox="0 0 432 72" height="96" preserveAspectRatio="xMidYMid meet" version="1.0"><defs><g/><clipPath id="9ef6a806db"><path d="M 6.75 0 L 425.25 0 C 428.976562 0 432 3.023438 432 6.75 L 432 65.25 C 432 68.976562 428.976562 72 425.25 72 L 6.75 72 C 3.023438 72 0 68.976562 0 65.25 L 0 6.75 C 0 3.023438 3.023438 0 6.75 0 " clip-rule="nonzero"/></clipPath><clipPath id="100a114538"><path d="M 12 16.222656 L 65.648438 16.222656 L 65.648438 55.972656 L 12 55.972656 Z M 12 16.222656 " clip-rule="nonzero"/></clipPath><clipPath id="a73283667b"><path d="M 18 25 L 39 25 L 39 55.972656 L 18 55.972656 Z M 18 25 " clip-rule="nonzero"/></clipPath><clipPath id="a5bac111ea"><path d="M 12 17 L 19 17 L 19 55.972656 L 12 55.972656 Z M 12 17 " clip-rule="nonzero"/></clipPath><clipPath id="f1e2526b86"><path d="M 12 17 L 65.648438 17 L 65.648438 55.972656 L 12 55.972656 Z M 12 17 " clip-rule="nonzero"/></clipPath><clipPath id="b84fb52771"><path d="M 58 17 L 65.648438 17 L 65.648438 55.972656 L 58 55.972656 Z M 58 17 " clip-rule="nonzero"/></clipPath><clipPath id="66d2f98924"><path d="M 12 20 L 65.648438 20 L 65.648438 55.972656 L 12 55.972656 Z M 12 20 " clip-rule="nonzero"/></clipPath><clipPath id="1372edfbb8"><path d="M 12 16.222656 L 65.648438 16.222656 L 65.648438 42 L 12 42 Z M 12 16.222656 " clip-rule="nonzero"/></clipPath></defs><g clip-path="url(#9ef6a806db)"><path fill="#c71610" d="M 0 0 L 432 0 L 432 71.886719 L 0 71.886719 Z M 0 0 " fill-opacity="1" fill-rule="nonzero"/></g><g fill="#ffffff" fill-opacity="1"><g transform="translate(98.02734, 47.25)"><g><path d="M 17.734375 -13.359375 L 17.734375 -22.484375 L 20.359375 -22.484375 L 20.359375 0 L 17.734375 0 L 17.734375 -11.125 L 6.046875 -11.125 L 6.046875 0 L 3.40625 0 L 3.40625 -22.484375 L 6.046875 -22.484375 L 6.046875 -13.359375 Z M 17.734375 -13.359375 "/></g></g></g><g fill="#ffffff" fill-opacity="1"><g transform="translate(121.797301, 47.25)"><g><path d="M 7 0.328125 C 5.320312 0.328125 4.015625 -0.109375 3.078125 -0.984375 C 2.140625 -1.859375 1.671875 -3.101562 1.671875 -4.71875 C 1.671875 -5.726562 1.878906 -6.578125 2.296875 -7.265625 C 2.710938 -7.960938 3.351562 -8.523438 4.21875 -8.953125 C 5.09375 -9.390625 6.234375 -9.726562 7.640625 -9.96875 C 8.867188 -10.175781 9.800781 -10.40625 10.4375 -10.65625 C 11.082031 -10.914062 11.515625 -11.203125 11.734375 -11.515625 C 11.960938 -11.835938 12.078125 -12.238281 12.078125 -12.71875 C 12.078125 -13.488281 11.8125 -14.078125 11.28125 -14.484375 C 10.75 -14.898438 9.898438 -15.109375 8.734375 -15.109375 C 7.640625 -15.109375 6.695312 -14.894531 5.90625 -14.46875 C 5.125 -14.039062 4.40625 -13.40625 3.75 -12.5625 L 3.453125 -12.5625 L 2.21875 -14.296875 C 2.9375 -15.210938 3.847656 -15.9375 4.953125 -16.46875 C 6.054688 -17.007812 7.316406 -17.28125 8.734375 -17.28125 C 10.734375 -17.28125 12.207031 -16.84375 13.15625 -15.96875 C 14.101562 -15.09375 14.578125 -13.878906 14.578125 -12.328125 L 14.578125 -3.34375 C 14.578125 -2.394531 14.976562 -1.921875 15.78125 -1.921875 C 16.050781 -1.921875 16.304688 -1.96875 16.546875 -2.0625 L 16.765625 -2 L 17.0625 -0.265625 C 16.875 -0.140625 16.628906 -0.046875 16.328125 0.015625 C 16.023438 0.0859375 15.710938 0.125 15.390625 0.125 C 14.460938 0.125 13.757812 -0.078125 13.28125 -0.484375 C 12.800781 -0.898438 12.492188 -1.507812 12.359375 -2.3125 L 12.046875 -2.34375 C 11.566406 -1.445312 10.914062 -0.773438 10.09375 -0.328125 C 9.269531 0.109375 8.238281 0.328125 7 0.328125 Z M 7.546875 -1.671875 C 8.492188 -1.671875 9.3125 -1.890625 10 -2.328125 C 10.695312 -2.765625 11.226562 -3.378906 11.59375 -4.171875 C 11.96875 -4.960938 12.15625 -5.875 12.15625 -6.90625 L 12.15625 -9.0625 L 11.859375 -9.125 C 11.484375 -8.851562 11.019531 -8.628906 10.46875 -8.453125 C 9.925781 -8.273438 9.171875 -8.113281 8.203125 -7.96875 C 7.210938 -7.832031 6.425781 -7.625 5.84375 -7.34375 C 5.269531 -7.070312 4.859375 -6.722656 4.609375 -6.296875 C 4.367188 -5.867188 4.25 -5.34375 4.25 -4.71875 C 4.25 -3.726562 4.539062 -2.972656 5.125 -2.453125 C 5.707031 -1.929688 6.515625 -1.671875 7.546875 -1.671875 Z M 7.546875 -1.671875 "/></g></g></g><g fill="#ffffff" fill-opacity="1"><g transform="translate(139.340338, 47.25)"><g><path d="M 3.78125 0 L 3.78125 -14.921875 L 0.828125 -14.921875 L 0.828125 -16.984375 L 3.78125 -16.984375 C 3.59375 -17.722656 3.5 -18.425781 3.5 -19.09375 C 3.5 -20.1875 3.734375 -21.109375 4.203125 -21.859375 C 4.671875 -22.617188 5.316406 -23.179688 6.140625 -23.546875 C 6.972656 -23.921875 7.9375 -24.109375 9.03125 -24.109375 C 10.71875 -24.109375 12.015625 -23.742188 12.921875 -23.015625 L 11.953125 -21.234375 L 11.625 -21.171875 C 10.957031 -21.710938 10.09375 -21.984375 9.03125 -21.984375 C 8.03125 -21.984375 7.273438 -21.722656 6.765625 -21.203125 C 6.265625 -20.691406 6.015625 -19.96875 6.015625 -19.03125 C 6.015625 -18.445312 6.109375 -17.765625 6.296875 -16.984375 L 11.6875 -16.984375 L 11.6875 -14.921875 L 6.296875 -14.921875 L 6.296875 0 Z M 3.78125 0 "/></g></g></g><g fill="#ffffff" fill-opacity="1"><g transform="translate(151.425195, 47.25)"><g><path d="M 4.21875 -20.234375 C 3.6875 -20.234375 3.253906 -20.398438 2.921875 -20.734375 C 2.585938 -21.066406 2.421875 -21.492188 2.421875 -22.015625 C 2.421875 -22.523438 2.585938 -22.945312 2.921875 -23.28125 C 3.253906 -23.613281 3.6875 -23.78125 4.21875 -23.78125 C 4.75 -23.78125 5.179688 -23.613281 5.515625 -23.28125 C 5.847656 -22.945312 6.015625 -22.523438 6.015625 -22.015625 C 6.015625 -21.492188 5.847656 -21.066406 5.515625 -20.734375 C 5.179688 -20.398438 4.75 -20.234375 4.21875 -20.234375 Z M 2.953125 0 L 2.953125 -16.96875 L 5.453125 -16.96875 L 5.453125 0 Z M 2.953125 0 "/></g></g></g><g fill="#ffffff" fill-opacity="1"><g transform="translate(159.835401, 47.25)"><g><path d="M 13.5625 0 L 1.15625 0 L 1.15625 -2.1875 L 10.46875 -14.59375 L 10.375 -14.921875 L 1.53125 -14.921875 L 1.53125 -16.984375 L 13.421875 -16.984375 L 13.421875 -14.796875 L 4.109375 -2.390625 L 4.21875 -2.0625 L 13.5625 -2.0625 Z M 13.5625 0 "/></g></g></g><g fill="#ffffff" fill-opacity="1"><g transform="translate(174.610913, 47.25)"><g/></g></g><g fill="#ffffff" fill-opacity="1"><g transform="translate(182.329232, 47.25)"><g><path d="M 17.734375 -13.359375 L 17.734375 -22.484375 L 20.359375 -22.484375 L 20.359375 0 L 17.734375 0 L 17.734375 -11.125 L 6.046875 -11.125 L 6.046875 0 L 3.40625 0 L 3.40625 -22.484375 L 6.046875 -22.484375 L 6.046875 -13.359375 Z M 17.734375 -13.359375 "/></g></g></g><g fill="#ffffff" fill-opacity="1"><g transform="translate(206.099193, 47.25)"><g><path d="M 8.375 0.328125 C 6.457031 0.328125 5.03125 -0.175781 4.09375 -1.1875 C 3.15625 -2.207031 2.6875 -3.695312 2.6875 -5.65625 L 2.6875 -16.96875 L 5.203125 -16.96875 L 5.203125 -5.71875 C 5.203125 -3.144531 6.410156 -1.859375 8.828125 -1.859375 C 10.367188 -1.859375 11.582031 -2.359375 12.46875 -3.359375 C 13.363281 -4.367188 13.8125 -6.003906 13.8125 -8.265625 L 13.8125 -16.96875 L 16.3125 -16.96875 L 16.3125 0 L 13.953125 0 L 13.953125 -2.65625 L 13.625 -2.734375 C 13.039062 -1.703125 12.34375 -0.929688 11.53125 -0.421875 C 10.71875 0.078125 9.664062 0.328125 8.375 0.328125 Z M 8.375 0.328125 "/></g></g></g><g fill="#ffffff" fill-opacity="1"><g transform="translate(225.364245, 47.25)"><g><path d="M 7.734375 0.328125 C 6.671875 0.328125 5.6875 0.1875 4.78125 -0.09375 C 3.875 -0.375 3.101562 -0.757812 2.46875 -1.25 C 1.84375 -1.75 1.40625 -2.304688 1.15625 -2.921875 L 2.625 -4.453125 L 2.953125 -4.453125 C 3.503906 -3.617188 4.171875 -2.988281 4.953125 -2.5625 C 5.734375 -2.132812 6.660156 -1.921875 7.734375 -1.921875 C 8.984375 -1.921875 9.929688 -2.164062 10.578125 -2.65625 C 11.234375 -3.144531 11.5625 -3.820312 11.5625 -4.6875 C 11.5625 -5.351562 11.363281 -5.90625 10.96875 -6.34375 C 10.570312 -6.78125 9.9375 -7.109375 9.0625 -7.328125 L 6.203125 -8.03125 C 4.671875 -8.394531 3.550781 -8.976562 2.84375 -9.78125 C 2.144531 -10.582031 1.796875 -11.570312 1.796875 -12.75 C 1.796875 -13.675781 2.03125 -14.476562 2.5 -15.15625 C 2.976562 -15.84375 3.660156 -16.367188 4.546875 -16.734375 C 5.429688 -17.097656 6.484375 -17.28125 7.703125 -17.28125 C 9.265625 -17.28125 10.492188 -17.0625 11.390625 -16.625 C 12.285156 -16.195312 12.984375 -15.59375 13.484375 -14.8125 L 12.078125 -13.421875 L 11.765625 -13.421875 C 11.222656 -14.046875 10.628906 -14.5 9.984375 -14.78125 C 9.347656 -15.0625 8.585938 -15.203125 7.703125 -15.203125 C 6.585938 -15.203125 5.734375 -15 5.140625 -14.59375 C 4.546875 -14.195312 4.25 -13.617188 4.25 -12.859375 C 4.25 -12.171875 4.457031 -11.613281 4.875 -11.1875 C 5.289062 -10.769531 6.023438 -10.4375 7.078125 -10.1875 L 9.890625 -9.5 C 11.367188 -9.15625 12.4375 -8.578125 13.09375 -7.765625 C 13.75 -6.953125 14.078125 -5.9375 14.078125 -4.71875 C 14.078125 -3.726562 13.835938 -2.851562 13.359375 -2.09375 C 12.890625 -1.332031 12.175781 -0.738281 11.21875 -0.3125 C 10.269531 0.113281 9.109375 0.328125 7.734375 0.328125 Z M 7.734375 0.328125 "/></g></g></g><g fill="#ffffff" fill-opacity="1"><g transform="translate(241.046885, 47.25)"><g><path d="M 16.171875 -7.90625 L 4.5 -7.90625 C 4.570312 -5.84375 5.066406 -4.328125 5.984375 -3.359375 C 6.910156 -2.398438 8.171875 -1.921875 9.765625 -1.921875 C 10.972656 -1.921875 11.945312 -2.132812 12.6875 -2.5625 C 13.425781 -3 14.003906 -3.675781 14.421875 -4.59375 L 14.75 -4.59375 L 16.375 -3.625 C 15.882812 -2.394531 15.097656 -1.425781 14.015625 -0.71875 C 12.929688 -0.0195312 11.515625 0.328125 9.765625 0.328125 C 8.128906 0.328125 6.71875 0.00390625 5.53125 -0.640625 C 4.351562 -1.285156 3.445312 -2.265625 2.8125 -3.578125 C 2.175781 -4.890625 1.859375 -6.519531 1.859375 -8.46875 C 1.859375 -10.394531 2.191406 -12.019531 2.859375 -13.34375 C 3.535156 -14.664062 4.457031 -15.648438 5.625 -16.296875 C 6.789062 -16.953125 8.117188 -17.28125 9.609375 -17.28125 C 11.785156 -17.28125 13.484375 -16.664062 14.703125 -15.4375 C 15.921875 -14.21875 16.535156 -12.40625 16.546875 -10 C 16.546875 -9.050781 16.523438 -8.414062 16.484375 -8.09375 Z M 14.078125 -10 C 14.035156 -11.800781 13.632812 -13.113281 12.875 -13.9375 C 12.113281 -14.757812 11.023438 -15.171875 9.609375 -15.171875 C 8.128906 -15.171875 6.960938 -14.753906 6.109375 -13.921875 C 5.265625 -13.097656 4.75 -11.789062 4.5625 -10 Z M 14.078125 -10 "/></g></g></g><g fill="#ffffff" fill-opacity="1"><g transform="translate(259.128045, 47.25)"><g><path d="M 3.40625 7.203125 C 2.820312 7.203125 2.28125 7.148438 1.78125 7.046875 C 1.289062 6.953125 0.863281 6.816406 0.5 6.640625 L 0.96875 4.65625 L 1.25 4.5625 C 1.488281 4.6875 1.789062 4.789062 2.15625 4.875 C 2.53125 4.96875 2.914062 5.015625 3.3125 5.015625 C 4 5.015625 4.566406 4.921875 5.015625 4.734375 C 5.460938 4.546875 5.847656 4.238281 6.171875 3.8125 C 6.492188 3.394531 6.796875 2.8125 7.078125 2.0625 L 7.671875 0.40625 L 0.859375 -16.96875 L 3.5625 -16.96875 L 8.90625 -3.125 L 9.203125 -3.125 L 14.359375 -16.96875 L 16.9375 -16.96875 L 9.359375 2.65625 C 8.921875 3.75 8.4375 4.625 7.90625 5.28125 C 7.375 5.945312 6.742188 6.429688 6.015625 6.734375 C 5.285156 7.046875 4.414062 7.203125 3.40625 7.203125 Z M 3.40625 7.203125 "/></g></g></g><g fill="#ffffff" fill-opacity="1"><g transform="translate(277.009335, 47.25)"><g><path d="M 2.953125 0 L 2.953125 -16.96875 L 5.34375 -16.96875 L 5.34375 -14.296875 L 5.65625 -14.234375 C 6.21875 -15.222656 6.9375 -15.976562 7.8125 -16.5 C 8.695312 -17.019531 9.769531 -17.28125 11.03125 -17.28125 C 13.070312 -17.28125 14.550781 -16.757812 15.46875 -15.71875 C 16.382812 -14.6875 16.84375 -13.085938 16.84375 -10.921875 L 16.84375 0 L 14.328125 0 L 14.328125 -10.859375 C 14.328125 -11.878906 14.195312 -12.703125 13.9375 -13.328125 C 13.675781 -13.953125 13.269531 -14.40625 12.71875 -14.6875 C 12.175781 -14.96875 11.457031 -15.109375 10.5625 -15.109375 C 9.039062 -15.109375 7.804688 -14.601562 6.859375 -13.59375 C 5.921875 -12.582031 5.453125 -10.953125 5.453125 -8.703125 L 5.453125 0 Z M 2.953125 0 "/></g></g></g><g fill="#ffffff" fill-opacity="1"><g transform="translate(296.53577, 47.25)"><g><path d="M 9.734375 0.328125 C 8.140625 0.328125 6.75 -0.0078125 5.5625 -0.6875 C 4.375 -1.363281 3.457031 -2.359375 2.8125 -3.671875 C 2.175781 -4.992188 1.859375 -6.59375 1.859375 -8.46875 C 1.859375 -10.351562 2.175781 -11.957031 2.8125 -13.28125 C 3.457031 -14.601562 4.375 -15.597656 5.5625 -16.265625 C 6.75 -16.941406 8.140625 -17.28125 9.734375 -17.28125 C 11.335938 -17.28125 12.726562 -16.941406 13.90625 -16.265625 C 15.09375 -15.597656 16.003906 -14.601562 16.640625 -13.28125 C 17.285156 -11.957031 17.609375 -10.351562 17.609375 -8.46875 C 17.609375 -6.59375 17.285156 -4.992188 16.640625 -3.671875 C 16.003906 -2.359375 15.09375 -1.363281 13.90625 -0.6875 C 12.726562 -0.0078125 11.335938 0.328125 9.734375 0.328125 Z M 9.734375 -1.921875 C 11.429688 -1.921875 12.726562 -2.453125 13.625 -3.515625 C 14.519531 -4.585938 14.96875 -6.238281 14.96875 -8.46875 C 14.96875 -10.71875 14.519531 -12.375 13.625 -13.4375 C 12.726562 -14.507812 11.429688 -15.046875 9.734375 -15.046875 C 8.046875 -15.046875 6.75 -14.507812 5.84375 -13.4375 C 4.9375 -12.363281 4.484375 -10.707031 4.484375 -8.46875 C 4.484375 -6.238281 4.9375 -4.585938 5.84375 -3.515625 C 6.75 -2.453125 8.046875 -1.921875 9.734375 -1.921875 Z M 9.734375 -1.921875 "/></g></g></g><g fill="#ffffff" fill-opacity="1"><g transform="translate(316.000705, 47.25)"><g><path d="M 10.734375 0 L 7.296875 0 L 0.828125 -16.96875 L 3.53125 -16.96875 L 8.875 -2.859375 L 9.234375 -2.859375 L 14.515625 -16.96875 L 17.171875 -16.96875 Z M 10.734375 0 "/></g></g></g><g clip-path="url(#100a114538)"><path fill="#f2f2f2" d="M 61.738281 55.832031 L 15.554688 55.832031 C 13.75 55.832031 12.238281 54.386719 12.238281 52.519531 L 12.238281 20.191406 C 12.238281 19.746094 12.324219 19.320312 12.492188 18.910156 C 12.660156 18.5 12.902344 18.136719 13.210938 17.824219 C 13.523438 17.507812 13.882812 17.265625 14.285156 17.097656 C 14.691406 16.925781 15.113281 16.839844 15.554688 16.839844 L 61.738281 16.839844 C 63.542969 16.839844 65.050781 18.34375 65.050781 20.195312 L 65.050781 52.480469 C 65.011719 54.390625 63.542969 55.832031 61.738281 55.832031 Z M 61.738281 55.832031 " fill-opacity="1" fill-rule="nonzero"/></g><g clip-path="url(#a73283667b)"><path fill="#221f1f" d="M 18.84375 55.832031 L 38.601562 41.199219 L 38.726562 40.351562 L 18.347656 25.539062 L 18.304688 55.109375 Z M 18.84375 55.832031 " fill-opacity="0.098" fill-rule="nonzero"/></g><g clip-path="url(#a5bac111ea)"><path fill="#d44c3d" d="M 15.554688 55.832031 C 13.726562 55.832031 12.238281 54.386719 12.238281 52.519531 L 12.238281 20.148438 C 12.238281 18.28125 13.726562 17.945312 15.554688 17.945312 C 17.382812 17.945312 18.867188 18.328125 18.867188 20.148438 L 18.867188 55.828125 Z M 15.554688 55.832031 " fill-opacity="1" fill-rule="nonzero"/></g><g clip-path="url(#f1e2526b86)"><path fill="#d44c3d" d="M 15.554688 18.453125 C 17.902344 18.453125 18.363281 19.171875 18.363281 20.148438 L 18.363281 55.363281 L 15.554688 55.363281 C 14.003906 55.363281 12.742188 54.089844 12.742188 52.519531 L 12.742188 20.148438 C 12.703125 19.144531 13.203125 18.453125 15.554688 18.453125 Z M 15.554688 17.984375 C 13.726562 17.984375 12.238281 18.367188 12.238281 20.148438 L 12.238281 52.476562 C 12.234375 52.921875 12.3125 53.351562 12.480469 53.765625 C 12.644531 54.179688 12.882812 54.546875 13.195312 54.863281 C 13.507812 55.175781 13.867188 55.417969 14.277344 55.585938 C 14.6875 55.753906 15.113281 55.835938 15.554688 55.828125 L 18.867188 55.828125 L 18.867188 20.148438 C 18.84375 18.324219 17.398438 17.984375 15.554688 17.984375 Z M 61.738281 18.453125 C 63.875 18.453125 64.546875 18.875 64.546875 20.066406 L 64.546875 52.5625 C 64.546875 54.132812 63.289062 55.40625 61.738281 55.40625 L 58.925781 55.40625 L 58.925781 20.066406 C 58.882812 18.832031 59.597656 18.453125 61.738281 18.453125 Z M 61.738281 17.984375 C 59.890625 17.984375 58.421875 18.238281 58.421875 20.0625 L 58.421875 55.871094 L 61.738281 55.871094 C 63.582031 55.871094 65.050781 54.367188 65.050781 52.519531 L 65.050781 20.019531 C 65.011719 18.195312 63.542969 17.984375 61.738281 17.984375 Z M 61.738281 17.984375 " fill-opacity="1" fill-rule="nonzero"/></g><g clip-path="url(#b84fb52771)"><path fill="#d44c3d" d="M 61.738281 55.832031 L 58.421875 55.832031 L 58.421875 20.066406 C 58.421875 18.199219 59.90625 17.984375 61.738281 17.984375 C 63.566406 17.984375 65.050781 18.238281 65.050781 20.066406 L 65.050781 52.5625 C 65.042969 53 64.953125 53.421875 64.777344 53.820312 C 64.605469 54.222656 64.363281 54.578125 64.054688 54.882812 C 63.746094 55.1875 63.390625 55.421875 62.988281 55.589844 C 62.585938 55.753906 62.167969 55.832031 61.738281 55.832031 Z M 61.738281 55.832031 " fill-opacity="1" fill-rule="nonzero"/></g><g clip-path="url(#66d2f98924)"><path fill="#221f1f" d="M 47.601562 55.832031 L 12.53125 21.566406 L 14.378906 22.332031 L 38.808594 40.113281 L 65.050781 20.617188 L 65.050781 52.5625 C 65.046875 53.003906 64.960938 53.429688 64.792969 53.835938 C 64.625 54.246094 64.382812 54.605469 64.074219 54.914062 C 63.761719 55.226562 63.402344 55.464844 63 55.628906 C 62.59375 55.796875 62.171875 55.878906 61.734375 55.875 Z M 47.601562 55.832031 " fill-opacity="0.0784" fill-rule="nonzero"/></g><g clip-path="url(#1372edfbb8)"><path fill="#d44c3d" d="M 38.585938 41.242188 L 13.664062 22.949219 C 12.179688 21.847656 11.777344 19.726562 12.867188 18.242188 C 13.960938 16.753906 16.054688 16.414062 17.566406 17.519531 L 38.625 33.011719 L 59.808594 17.308594 C 61.292969 16.207031 63.332031 16.546875 64.421875 18.070312 C 65.511719 19.574219 65.175781 21.636719 63.667969 22.742188 Z M 38.585938 41.242188 " fill-opacity="1" fill-rule="nonzero"/><path fill="#d44c3d" d="M 61.738281 17.179688 C 62.617188 17.179688 63.5 17.601562 64.042969 18.367188 C 64.925781 19.640625 64.671875 21.425781 63.417969 22.375 L 38.585938 40.648438 L 13.960938 22.570312 C 12.703125 21.632812 12.363281 19.808594 13.230469 18.5625 C 13.734375 17.796875 14.617188 17.332031 15.578125 17.332031 C 16.207031 17.332031 16.796875 17.5 17.253906 17.882812 L 38.269531 33.332031 L 38.5625 33.5 L 38.855469 33.332031 L 60.019531 17.644531 C 60.5625 17.34375 61.109375 17.175781 61.738281 17.175781 Z M 61.738281 16.667969 C 61.066406 16.667969 60.351562 16.839844 59.804688 17.304688 L 38.625 33.007812 L 17.523438 17.476562 C 16.980469 17.050781 16.265625 16.839844 15.554688 16.839844 C 14.503906 16.882812 13.457031 17.351562 12.828125 18.246094 C 11.777344 19.746094 12.199219 21.808594 13.664062 22.914062 L 38.585938 41.242188 L 63.667969 22.738281 C 64.019531 22.476562 64.308594 22.15625 64.539062 21.78125 C 64.765625 21.402344 64.917969 20.996094 64.988281 20.558594 C 65.058594 20.121094 65.042969 19.6875 64.945312 19.257812 C 64.847656 18.828125 64.671875 18.429688 64.421875 18.070312 C 63.75 17.175781 62.742188 16.664062 61.738281 16.664062 Z M 61.738281 16.667969 " fill-opacity="1" fill-rule="nonzero"/></g></svg>